<?xml version="1.0" encoding="UTF-8" standalone="no"?>
<svg
   aria-label="Defense Unicorns Logo"
   width="70"
   height="100"
   viewBox="0 0 45.051054 64"
   fill="none"
   version="1.1"
   id="svg291"
   sodipodi:docname="doug.svg"
   inkscape:version="1.2.2 (b0a8486541, 2022-12-01)"
   xmlns:inkscape="http://www.inkscape.org/namespaces/inkscape"
   xmlns:sodipodi="http://sodipodi.sourceforge.net/DTD/sodipodi-0.dtd"
   xmlns="http://www.w3.org/2000/svg"
   xmlns:svg="http://www.w3.org/2000/svg">
  <sodipodi:namedview
     id="namedview293"
     pagecolor="#ffffff"
     bordercolor="#000000"
     borderopacity="0.25"
     inkscape:showpageshadow="2"
     inkscape:pageopacity="0.0"
     inkscape:pagecheckerboard="0"
     inkscape:deskcolor="#d1d1d1"
     showgrid="false"
     inkscape:zoom="8"
     inkscape:cx="30.8125"
     inkscape:cy="41"
     inkscape:window-width="2560"
     inkscape:window-height="1403"
     inkscape:window-x="2560"
     inkscape:window-y="0"
     inkscape:window-maximized="1"
     inkscape:current-layer="g284" />
  <g
     clip-path="url(#clip0_3121_17160)"
     id="g284">
    <g
       id="g3988"
       inkscape:label="tail"
       style="display:inline">
      <path
         d="m 29.603,47.5882 c 0,0 3.2123,-4.2453 8.2495,-3.0636 5.0373,1.1826 6.3533,-1.8054 6.3533,-1.8054 0,0 -2.5022,9.1624 -8.9062,6.6362 0,0 0.9833,0.8258 1.8918,1.6213 -1.9238,1.3809 -3.6678,2.2005 -7.1194,0.1245"
         fill="#2494d1"
         id="path142" />
      <path
         d="m 29.1689,48.3108 c 0,0 3.247,-4.7703 7.3784,-3.7995 4.1323,0.9707 6.6113,-0.0597 6.6113,-0.0597 0,0 -2.8696,5.879 -7.4522,3.1624 -0.7981,-0.5712 -1.8668,-0.4449 -2.3891,0.2839 -0.5215,0.7287 -0.2981,1.7823 0.4992,2.3544 -1.2075,0.4886 -2.8154,-0.1343 -3.6785,-0.7091"
         fill="#ffffff"
         id="path144" />
      <path
         d="m 33.6249,52.8551 c -1.2084,0 -2.4755,-0.3044 -3.7523,-0.9148 -0.3622,-0.1726 -0.5161,-0.6068 -0.3426,-0.969 0.1726,-0.3621 0.6086,-0.5161 0.969,-0.3417 1.9531,0.9326 3.8565,1.0091 5.4572,0.2394 -0.6193,-0.5312 -1.1238,-0.9566 -1.1247,-0.9575 -0.2723,-0.2286 -0.339,-0.6219 -0.1566,-0.928 0.1815,-0.3061 0.5579,-0.4352 0.8907,-0.3043 1.3632,0.5383 2.5778,0.5241 3.7132,-0.0445 1.4353,-0.7172 2.4772,-2.1943 3.1677,-3.5166 -1.0971,0.4271 -2.6365,0.6113 -4.7605,0.1139 -4.5149,-1.0615 -7.9122,3.1491 -7.946,3.1909 -0.2483,0.3141 -0.7065,0.3675 -1.0206,0.1192 -0.3141,-0.2482 -0.3684,-0.7038 -0.1202,-1.0197 0.1611,-0.2047 3.9926,-4.9803 9.4196,-3.7061 4.3325,1.0144 5.4786,-1.3009 5.5258,-1.3988 0.161,-0.3408 0.557,-0.5063 0.9111,-0.3764 0.3542,0.1308 0.5508,0.5054 0.4521,0.8694 -0.0588,0.2144 -1.4736,5.2695 -4.9732,7.0215 -0.6976,0.3497 -1.4255,0.5446 -2.1801,0.5846 0.1131,0.1379 0.1718,0.3132 0.1629,0.4948 -0.0107,0.2215 -0.1219,0.4253 -0.3017,0.5552 -1.1932,0.8569 -2.5502,1.2876 -3.9899,1.2876 z"
         fill="#144a8f"
         id="path214" />
    </g>
    <g
       id="g3967"
       inkscape:label="body"
       style="display:inline">
      <path
         d="m 13.8071,48.5911 -2.3527,5.5417 -0.3978,5.4528 h 5.4555 l 1.0624,-0.5988 3.077,0.1068 0.0472,1.4566 h 5.7179 l 0.4111,-1.4566 h 4.3174 c 0,0 -1.2084,-10.6405 -3.2683,-12.0633 -7.841,5.3282 -14.0697,1.5599 -14.0697,1.5599"
         fill="#ffffff"
         id="path132" />
      <path
         d="m 12.9955,50.1207 c 0,0 4.7445,2.8331 10.434,0 4.5434,-2.2628 -9.6234,-1.5296 -9.6234,-1.5296 l -0.8115,1.5296 z"
         fill="#2494d1"
         id="path136"
         style="display:inline" />
    </g>
    <g
       id="g3979"
       inkscape:label="left-side"
       style="display:inline">
      <path
         d="m 27.982,54.8064 0.3176,4.0549 h -1.5144 z"
         fill="#2494d1"
         id="path134" />
      <path
         d="m 31.1842,61.3439 h -4.6368 l 0.2811,-2.2494 h 4.3174 c 0,0 0.0463,1.5171 0.0383,2.2494 z"
         fill="#eb2126"
         id="path138" />
      <path
         d="m 31.1845,62.07 h -4.6369 c -0.2082,0 -0.4066,-0.089 -0.5445,-0.2456 -0.1379,-0.1566 -0.202,-0.3639 -0.1762,-0.5704 l 0.2812,-2.2494 c 0.0454,-0.364 0.355,-0.6362 0.7207,-0.6362 h 4.3174 c 0.3924,0 0.7145,0.3123 0.7261,0.7038 0,0 0.0463,1.5385 0.0392,2.2797 -0.0045,0.3978 -0.3284,0.719 -0.727,0.719 z m -3.8138,-1.4522 h 3.0832 c -0.0044,-0.2696 -0.0098,-0.5508 -0.016,-0.7973 h -2.9684 l -0.0997,0.7973 z"
         fill="#144a8f"
         id="path140" />
      <path
         d="m 26.229,61.2175 h -5.9502 v 2.4631 h 5.9502 z"
         fill="#eb2126"
         id="path218" />
      <path
         d="m 20.1909,61.0511 c 0,0 0.816,-0.1076 1.4397,-0.218 0.1976,-0.0347 0.3738,0.2136 0.3293,0.4681 -0.1709,0.9859 0.1779,1.7218 -0.0071,2.0457 -0.2189,0.3835 -1.7583,0.0293 -1.7583,0.0293 l -0.0036,-2.3259 z"
         fill="#a62126"
         id="path224" />
      <path
         d="m 19.6455,52.6388 0.0641,-0.1557 c 0.638,-0.1228 1.5741,0.3017 1.8303,0.8987 l 0.816,2.3812 c 0.1103,0.3212 0.1255,0.6673 0.0427,0.9983 l -0.945,3.7907 -0.355,-4.321 z"
         fill="#2494d1"
         id="path240" />
      <path
         d="m 20.101,53.5678 c 0.6673,0.6674 1.8295,2.5128 1.3498,2.9916 -0.4787,0.4787 -1.9958,0.0462 -2.6641,-0.6211 -0.6673,-0.6683 -0.8818,-1.5679 -0.4022,-2.0466 0.9842,0.4057 1.0491,-0.9913 1.7165,-0.3239 z"
         fill="#2494d1"
         id="path246" />
      <path
         d="m 20.6516,59.0945 h -3.7541 v 2.2494 h 3.7541 z"
         fill="#eb2126"
         id="path250" />
      <path
         d="m 20.651,62.07 h -3.7541 c -0.4013,0 -0.727,-0.3248 -0.727,-0.7261 v -2.2495 c 0,-0.4013 0.3257,-0.726 0.727,-0.726 h 3.7541 c 0.4013,0 0.727,0.3247 0.727,0.726 v 2.2495 c 0,0.4013 -0.3257,0.7261 -0.727,0.7261 z m -3.0271,-1.4522 h 2.3002 v -0.7973 h -2.3002 z"
         fill="#144a8f"
         id="path252" />
      <path
         d="m 25.9997,63.9991 h -5.5524 c -0.2047,0 -0.3996,-0.0854 -0.5375,-0.2367 -0.1379,-0.1512 -0.2055,-0.3532 -0.1868,-0.5561 l 0.6344,-6.8552 -1.2626,-2.8919 c -0.1611,-0.3675 0.0071,-0.7955 0.3755,-0.9565 0.3674,-0.1628 0.7963,0.0071 0.9574,0.3755 l 1.3374,3.0627 c 0.0489,0.1122 0.0685,0.2349 0.0578,0.3569 l -0.5784,6.2491 h 4.1315 l 1.1985,-7.825 c 0.0614,-0.3969 0.4298,-0.6611 0.8285,-0.6086 0.3968,0.0614 0.6682,0.4324 0.6077,0.8284 l -0.8711,5.6832 c 0.0338,-0.0044 0.0685,-0.0071 0.1041,-0.0071 H 28.17 c 0.0907,-0.2981 0.3675,-0.5143 0.6949,-0.5143 0.3275,0 0.6042,0.2162 0.695,0.5143 h 0.8916 C 30.3171,49.9694 27.2401,47.0979 27.2081,47.0704 26.9118,46.8052 26.8789,46.3487 27.1405,46.048 c 0.2607,-0.3008 0.7109,-0.3373 1.0144,-0.081 0.153,0.1299 3.755,3.3172 3.755,15.3769 0,0.4013 -0.3257,0.7261 -0.727,0.7261 h -3.9392 c -0.113,0 -0.2198,-0.0258 -0.315,-0.0712 l -0.2118,1.3837 c -0.0543,0.355 -0.3595,0.6157 -0.7181,0.6157 z m -7.4148,-2.2815 c -0.4013,0 -0.727,-0.3248 -0.727,-0.7261 v -0.161 c 0,-0.4013 0.3257,-0.7261 0.727,-0.7261 0.4013,0 0.727,0.3248 0.727,0.7261 v 0.161 c 0,0.4013 -0.3257,0.7261 -0.727,0.7261 z"
         fill="#144a8f"
         id="path254" />
      <path
         d="m 23.1542,64 c -0.4013,0 -0.727,-0.3248 -0.727,-0.7261 v -1.0055 c 0,-0.4013 0.3257,-0.7261 0.727,-0.7261 0.4013,0 0.727,0.3248 0.727,0.7261 v 1.0055 c 0,0.4013 -0.3257,0.7261 -0.727,0.7261 z"
         fill="#144a8f"
         id="path220" />
      <path
         d="m 25.8801,61.2772 h -5.1805 c -0.4013,0 -0.7269,-0.3248 -0.7269,-0.7261 0,-0.4013 0.3256,-0.7261 0.7269,-0.7261 h 5.1805 c 0.4013,0 0.727,0.3248 0.727,0.7261 0,0.4013 -0.3257,0.7261 -0.727,0.7261 z"
         fill="#144a8f"
         id="path244" />
    </g>
    <g
       id="g3964"
       inkscape:label="right-front-leg"
       style="display:inline">
      <path
         d="m 15.1382,49.2068 c 0,0 0.5036,-1.2973 -1.3303,-0.6157 -1.8348,0.6807 -3.0174,11.0239 -3.0174,11.0239 h 0.8222 c 0.4503,0 1.3561,-0.0845 1.325,-0.5348 0,0 0.0578,-3.0574 0.2696,-4.7605 0.4262,-1.5661 1.93,-5.1129 1.93,-5.1129"
         fill="#2494d1"
         id="path146"
         style="display:inline" />
      <path
         d="m 17.0072,60.1124 h -5.951 v 2.463 h 5.951 z"
         fill="#eb2126"
         id="path216" />
      <path
         d="m 11.1593,59.8455 c 0,0 0.8231,-0.0045 1.4549,-0.0356 0.2002,-0.0098 0.3434,0.2589 0.2678,0.5063 -0.2928,0.9565 -0.0401,1.7298 -0.2634,2.0279 -0.2652,0.3523 -1.7485,-0.1914 -1.7485,-0.1914 z"
         fill="#a62126"
         id="path222" />
      <path
         d="m 13.8919,63.1894 c -0.4013,0 -0.727,-0.3248 -0.727,-0.7261 v -0.8934 c 0,-0.4013 0.3257,-0.7261 0.727,-0.7261 0.4013,0 0.727,0.3248 0.727,0.7261 v 0.8934 c 0,0.4013 -0.3257,0.7261 -0.727,0.7261 z m 2.6205,-2.8768 h -5.4563 c -0.4013,0 -0.727,-0.3248 -0.727,-0.7261 0,-0.4013 0.3257,-0.7261 0.727,-0.7261 h 5.4563 c 0.4013,0 0.727,0.3248 0.727,0.7261 0,0.4013 -0.3257,0.7261 -0.727,0.7261 z"
         fill="#144a8f"
         id="path242" />
      <path
         d="m 16.4463,63.3024 h -5.5524 c -0.2011,0 -0.3933,-0.0828 -0.5303,-0.2296 -0.1371,-0.1468 -0.2074,-0.3444 -0.194,-0.5446 l 0.5606,-8.4434 c 0.0044,-0.0712 0.0195,-0.1406 0.0444,-0.2074 l 2.2068,-5.8825 c 0.1406,-0.3755 0.5624,-0.5659 0.9352,-0.4245 0.3764,0.1406 0.5659,0.5597 0.4253,0.9361 l -2.1685,5.7811 -0.5018,7.5626 h 4.0647 l 0.105,-4.6938 c 0.0017,-0.097 0.0231,-0.1913 0.0622,-0.2794 l 1.2663,-2.8438 c 0.1628,-0.3675 0.5917,-0.5313 0.9592,-0.3684 0.3666,0.1628 0.5312,0.5926 0.3684,0.9592 l -1.2066,2.7104 -0.1175,5.2579 c -0.0089,0.3951 -0.331,0.7101 -0.7261,0.7101 z"
         fill="#144a8f"
         id="path248" />
    </g>
    <g
       id="g3914"
       inkscape:label="head"
       style="display:inline">
      <path
         d="m 37.1996,24.7662 c 0,9.8779 -7.8722,25.3545 -17.5836,25.3545 -9.71149,0 -17.5828,-15.4766 -17.5828,-25.3545 0,-9.8778 7.8722,-13.8357 17.5828,-13.8357 9.7105,0 17.5836,3.9588 17.5836,13.8357 z"
         fill="#ffffff"
         id="path148"
         style="display:inline" />
      <path
         d="m 19.6159,50.8476 c -10.10743,0 -18.30975,-15.7817 -18.30975,-26.0805 0,-9.2549 6.67362,-14.5627 18.30975,-14.5627 11.6361,0 18.3106,5.3078 18.3106,14.5627 0,10.2997 -8.2032,26.0805 -18.3106,26.0805 z m 0,-39.1901 c -5.0684,0 -16.85668,1.2778 -16.85668,13.1096 0,9.5006 7.71378,24.6284 16.85668,24.6284 9.1428,0 16.8575,-15.1278 16.8575,-24.6284 0,-11.8318 -11.7891,-13.1096 -16.8575,-13.1096 z"
         fill="#144a8f"
         id="path150"
         style="display:inline" />
    </g>
    <g
       id="g3923"
       inkscape:label="hair"
       style="display:inline">
      <path
         d="m 13.9888,28.2223 c 0,0 0.9814,4.1919 7.5501,4.813 0.4404,0.0418 0.7002,-0.4992 0.4635,-0.872 -0.3087,-0.4885 -1.2937,-1.2822 -1.3098,-1.9309 1.4576,0.169 3.8227,0.8747 5.0666,0.202 0.3809,-0.2056 0.3578,-0.7599 -0.0364,-0.937 -0.8071,-0.3631 -0.7662,-1.7227 -1.1381,-2.4167"
         fill="#2494d1"
         id="path160" />
      <path
         d="m 14.1846,26.8929 c 0,0 0.565,4.6128 8.7442,4.0166 -0.4859,-0.63 -1.0019,-1.3035 -1.0242,-2.2218 1.623,0.1877 3.6741,0.2322 4.7062,-0.9779 -0.9645,-0.17 -2.0439,-0.913 -2.4932,-1.7494"
         fill="#ffffff"
         id="path162" />
      <path
         d="m 21.5096,31.6899 c -7.3801,0 -8.0217,-4.506 -8.0466,-4.7089 -0.0489,-0.3986 0.2349,-0.7608 0.6327,-0.8097 0.3933,-0.0525 0.7563,0.2313 0.8088,0.6255 0.024,0.1628 0.5873,3.44 6.6069,3.44 0.0276,0 0.0552,0 0.0836,0 -0.2322,-0.4395 -0.4031,-0.9423 -0.4173,-1.5313 -0.0053,-0.21 0.081,-0.412 0.2367,-0.5535 0.1557,-0.1415 0.3613,-0.2073 0.573,-0.1851 1.3098,0.1522 2.3189,0.1184 3.0459,-0.105 -0.6612,-0.3986 -1.2333,-0.9565 -1.5563,-1.5572 -0.1895,-0.3541 -0.057,-0.7946 0.2972,-0.9841 0.3524,-0.1895 0.7937,-0.057 0.9841,0.2972 0.3355,0.6264 1.2235,1.244 1.9781,1.3774 0.2571,0.0454 0.4698,0.2243 0.5579,0.4699 0.0881,0.2455 0.0383,0.5187 -0.1308,0.718 -1.0393,1.2182 -2.7905,1.3988 -4.3138,1.3179 0.1655,0.3336 0.4057,0.6451 0.654,0.9672 0.1628,0.2118 0.1966,0.4965 0.0872,0.7403 -0.1086,0.2438 -0.3435,0.4084 -0.6104,0.428 -0.5179,0.0383 -1.0091,0.0552 -1.4718,0.0552 z"
         fill="#144a8f"
         id="path164" />
    </g>
    <g
       id="g3910"
       inkscape:label="right-ear"
       style="display:inline">
      <path
         d="m 4.5441025,23.140575 -1.7080471,-0.0029 c 0.1638196,-1.59628 0.4393988,-2.178342 0.4393988,-2.178342 l 1.2661115,2.173704 z"
         fill="#2494d1"
         id="path152"
         sodipodi:nodetypes="ccccc" />
      <path
         d="m 9.49879,14.5298 c 0,0 -4.29425,-2.1258 -8.2655,-1.8704 -1.409466,4.0807 0.20644,8.1632 3.2674,9.7533"
         fill="#ffffff"
         id="path174" />
      <path
         d="m 4.50063,23.1388 c -0.11301,0 -0.22779,-0.0267 -0.33457,-0.0819 C 0.64061,21.2257 -0.914788,16.6529 0.547179,12.4218 0.64328,12.1451 0.895097,11.952 1.18785,11.9342 c 4.12162,-0.2741 8.45147,1.8544 8.63388,1.9451 0.35947,0.178 0.50627,0.6131 0.32837,0.9726 -0.17799,0.3595 -0.61489,0.5054 -0.97349,0.3301 -0.03915,-0.0195 -3.8182,-1.8561 -7.40326,-1.8161 -0.968124,3.4169 0.29897,6.9664 3.06274,8.4026 0.35593,0.185 0.49474,0.6237 0.30966,0.9796 -0.12903,0.2492 -0.38262,0.3916 -0.64512,0.3916 z"
         fill="#144a8f"
         id="path176" />
      <path
         d="m 2.63041,15.3831 c -0.09698,0.6069 0.0267,3.1518 2.2895,4.9323 0.0872,0.0685 0.21,-0.0178 0.17529,-0.1228 C 4.91012,19.624 4.83983,19.2734 4.81669,18.9718 4.80779,18.8623 4.9297,18.7929 5.02046,18.8543 5.22779,18.994 5.48228,19.0919 5.97612,18.9887 6.13451,18.9566 6.2137,18.776 6.13362,18.6354 6.0482,18.4868 5.94053,18.3133 5.90583,18.0855 c -0.02225,-0.1406 0.09343,-0.2652 0.2358,-0.2598 0.86223,0.0302 1.53582,0.137 2.07416,-0.2483"
         fill="#2494d1"
         id="path178" />
      <path
         d="m 7.91114,17.7625 c -0.10767,0 -0.21711,-0.024 -0.32122,-0.0756 C 7.56945,17.6762 5.51309,16.6716 3.1088,16.2632 2.71284,16.1955 2.44678,15.8209 2.51441,15.425 c 0.06762,-0.396 0.44847,-0.6567 0.8382,-0.5944 2.6214,0.4458 4.78988,1.5091 4.88153,1.5545 0.35949,0.1779 0.50631,0.6131 0.32923,0.9725 -0.12635,0.2563 -0.38439,0.4049 -0.65223,0.4049 z"
         fill="#144a8f"
         id="path182" />
    </g>
    <g
       id="g3903"
       inkscape:label="left-ear"
       style="display:inline">
      <path
         d="m 29.7329,14.5298 c 0,0 4.2943,-2.1258 8.2655,-1.8704 1.4095,4.0807 -0.2064,8.1632 -3.2674,9.7533"
         fill="#ffffff"
         id="path184" />
      <path
         d="m 34.7314,23.1388 c -0.2625,0 -0.5161,-0.1424 -0.6451,-0.3915 -0.1851,-0.356 -0.0463,-0.7947 0.3096,-0.9797 2.7638,-1.4362 4.0309,-4.9857 3.0628,-8.4026 -3.6038,-0.0578 -7.3641,1.7966 -7.4033,1.8161 -0.3595,0.1771 -0.7955,0.0303 -0.9735,-0.3301 -0.1779,-0.3595 -0.0311,-0.7955 0.3293,-0.9725 0.1824,-0.0899 4.5167,-2.2095 8.6339,-1.9452 0.2918,0.0187 0.5445,0.2109 0.6406,0.4876 1.4611,4.2311 -0.0952,8.8039 -3.6197,10.6351 -0.1068,0.0552 -0.2216,0.0819 -0.3346,0.0819 z"
         fill="#144a8f"
         id="path186" />
      <path
         d="m 36.6015,15.3831 c 0.097,0.6069 -0.0267,3.1518 -2.2895,4.9323 -0.0872,0.0685 -0.21,-0.0178 -0.1753,-0.1228 0.1851,-0.5686 0.2554,-0.9192 0.2785,-1.2208 0.0089,-0.1095 -0.113,-0.1789 -0.2038,-0.1175 -0.2073,0.1397 -0.4618,0.2376 -0.9556,0.1344 -0.1584,-0.0321 -0.2376,-0.2127 -0.1575,-0.3533 0.0854,-0.1486 0.1931,-0.3221 0.2278,-0.5499 0.0222,-0.1406 -0.0935,-0.2652 -0.2358,-0.2598 -0.8623,0.0302 -1.5358,0.137 -2.0742,-0.2483"
         fill="#2494d1"
         id="path188" />
      <path
         d="m 31.3206,17.7625 c -0.2678,0 -0.5259,-0.1486 -0.6522,-0.4049 -0.178,-0.3594 -0.0312,-0.7955 0.3292,-0.9725 0.0908,-0.0454 2.2592,-1.1087 4.8815,-1.5545 0.3889,-0.065 0.7706,0.1984 0.8382,0.5944 0.0668,0.3959 -0.1993,0.7705 -0.5944,0.8382 -2.4042,0.4084 -4.4606,1.4139 -4.4811,1.4237 -0.1032,0.0507 -0.2126,0.0756 -0.3212,0.0756 z"
         fill="#144a8f"
         id="path192" />
    </g>
    <g
       id="g833"
       inkscape:label="horn"
       style="display:inline">
      <path
         d="m 25.0482,20.4675 c 0,1.4362 -2.4318,4.0807 -5.4323,4.0807 -3.0004,0 -5.4323,-2.6454 -5.4323,-4.0807 0,-1.4352 2.1747,-19.74052 5.1752,-19.74052 3.0004,0 5.6894,18.30442 5.6894,19.74052 z"
         fill="#ffffff"
         id="path166" />
      <path
         d="m 14.24179,20.635968 c 0,2.2023 3.644484,4.285711 5.42411,4.614332 -3.0895,0 -9.315137,-1.772568 -9.3324,-3.9748 -0.0096,-1.226866 2.651222,-2.023079 4.116594,-2.721681 0.174465,-0.08317 -0.208304,-0.120151 -0.208304,2.082149 z"
         fill="#2494d1"
         id="path154"
         sodipodi:nodetypes="scsss" />
      <path
         d="m 16.9014,19.5484 c 0,0 3.045,2.5617 5.1271,1.9994 1.2591,-0.3408 -0.0711,2.3678 -4.9518,1.6871 -5.0808,-0.7083 -2.447,-5.8933 -2.447,-5.8933 z"
         fill="#eb2126"
         id="path226" />
      <path
         d="m 17.5679,14.2406 c 0.3488,0.8249 3.0049,2.0742 4.8521,1.9692 0.2509,-0.0143 0.4841,0.137 0.557,0.3773 0.4432,1.4317 0.4565,3.0778 0.0855,3.7399 -0.3542,0.6335 -8.4675,-0.8587 -8.5013,-4.2756 -0.0338,-3.416 1.3329,-3.4845 1.3329,-3.4845 z"
         fill="#eb2126"
         id="path228" />
      <path
         d="m 17.6211,8.52888 c 0.2741,0.78749 2.35,2.03942 3.7479,2.16582 0.3373,0.0294 0.622,0.258 0.7297,0.5784 0.3621,1.0704 0.4716,2.2254 0.6442,3.2594 0.1085,0.6478 -7.5626,-0.7759 -7.591,-4.1928 -0.0276,-3.41604 1.0944,-3.48456 1.0944,-3.48456 l 1.3757,1.67374 z"
         fill="#eb2126"
         id="path230" />
      <path
         d="m 21.3734,7.49937 c 0.0756,0.31143 -0.1113,0.62732 -0.42,0.71096 -0.3453,0.09343 -0.8445,0.30432 -1.7556,0.32656 -2.0644,0.04894 -2.8999,-2.45767 -2.8999,-2.45767 0,0 0.8061,-4.81212 2.6178,-4.76407 0.6149,0.0169 1.9914,4.2462 2.4568,6.18422"
         fill="#eb2126"
         id="path234" />
      <path
         d="m 19.6159,25.2752 c -3.3403,0 -6.1584,-2.9533 -6.1584,-4.8077 C 13.4575,20.2629 15.2932,0 19.3588,0 c 4.0655,0 6.4155,20.2629 6.4155,20.4675 0,1.8544 -2.8189,4.8077 -6.1584,4.8077 z M 19.3588,1.45396 c -1.8633,0 -4.4482,16.15284 -4.4482,19.01354 0,0.9726 2.0359,3.3546 4.7053,3.3546 2.6695,0 4.7054,-2.3811 4.7054,-3.3546 0,-0.6477 -0.6692,-5.5577 -1.7031,-10.2524 C 20.7416,1.69243 19.3721,1.45396 19.3588,1.45396 Z"
         fill="#144a8f"
         id="path168"
         style="fill:#144a8f;fill-opacity:1;fill-rule:nonzero;stroke:none;stroke-width:0.67834;stroke-dasharray:none;stroke-opacity:1" />
      <path
         d="m 22.1807,21.0112 c -2.3198,0 -4.4011,-0.9725 -5.1628,-1.3756 -1.4148,-0.7493 -2.9799,-1.9452 -3.1285,-3.0548 -0.0534,-0.3977 0.226,-0.7634 0.6237,-0.8168 0.3978,-0.0543 0.7635,0.226 0.8169,0.6237 0.0498,0.2848 0.8755,1.2137 2.5609,2.0635 0.92,0.4636 4.1287,1.8758 6.7608,0.557 0.3595,-0.1797 0.7955,-0.0347 0.9752,0.3239 0.1798,0.3586 0.0347,0.7955 -0.3239,0.9753 -1.0251,0.5134 -2.0973,0.7038 -3.1223,0.7038 z m -0.4245,-5.4581 c -1.4006,0 -2.924824,-0.396854 -4.3983,-1.1763 -1.226224,-0.648654 -2.582186,-1.691615 -2.714,-2.6757 -0.05329,-0.397815 0.225852,-0.764611 0.6238,-0.8169 0.401156,-0.05271 0.740259,0.226571 0.8159,0.6167 0.04828,0.249017 0.860489,1.110523 2.4533,1.8365 0.933389,0.425423 3.318455,1.307014 5.3033,0.3115 0.358857,-0.179987 0.821687,0.0177 0.9752,0.3239 0.153513,0.306201 0.03469,0.795488 -0.3239,0.9752 -0.807906,0.404888 -1.7405,0.6042 -2.7344,0.6042 z M 18.458609,9.6902179 C 17.232385,9.0451789 16.110912,8.3773616 15.719055,7.523451 c -0.05329,-0.395598 0.01105,-0.8744133 0.409001,-0.9264113 0.401156,-0.05242 0.545348,0.1004732 0.828303,0.4958918 0.146818,0.2051721 0.914229,0.8676642 2.50704,1.5895952 0.933389,0.423053 2.641666,0.2956951 3.250766,-0.3637183 0.436325,-0.099224 0.540928,0.1367675 0.649334,0.2502947 0.25482,0.6460175 -0.572802,1.1072154 -0.64908,1.2090449 -0.693981,0.820076 -3.439226,0.390982 -4.25581,-0.08793 z"
         fill="#144a8f"
         id="path232"
         sodipodi:nodetypes="sccccccccscsssssszsccccssscccc" />
    </g>
    <g
       id="g3929"
       inkscape:label="left-eye"
       style="display:inline">
      <path
         d="m 22.2709,41.1015 c 0,0 -0.961,-3.9989 2.0493,-5.3478 -0.5704,1.5394 -1.7441,4.8788 -1.0091,6.0587 0.7341,1.1799 -1.0402,-0.71 -1.0402,-0.71"
         fill="#2494d1"
         id="path156" />
      <path
         d="m 34.0008,39.7721 c -1.8499,4.0024 -5.492,6.2563 -8.1356,5.0346 -2.6445,-1.2217 -3.287,-5.4573 -1.4379,-9.4597 1.8508,-4.0023 5.4928,-6.2563 8.1364,-5.0345 2.6437,1.2226 3.2861,5.4572 1.4371,9.4596 z"
         fill="#ffffff"
         id="path194" />
      <path
         d="m 27.415,45.8682 c -0.6487,0 -1.2733,-0.1334 -1.8553,-0.4022 -1.5073,-0.6967 -2.5075,-2.2014 -2.8171,-4.2373 -0.2928,-1.9255 0.072,-4.1225 1.025,-6.186 2.0155,-4.3592 6.1006,-6.7768 9.1011,-5.3896 3.0031,1.3881 3.8066,6.0641 1.7921,10.4242 -0.9539,2.0635 -2.391,3.7639 -4.0478,4.789 -1.0749,0.6647 -2.1658,1.0019 -3.1971,1.0019 z M 31.0348,30.712 c -2.0875,0 -4.579,1.9789 -5.9485,4.9403 -0.8355,1.8081 -1.1585,3.7114 -0.9076,5.3584 0.2341,1.5376 0.9406,2.6517 1.9906,3.1357 1.0499,0.4859 2.3562,0.3026 3.6784,-0.5161 1.4166,-0.8773 2.657,-2.3562 3.4935,-4.1634 1.6497,-3.5699 1.1549,-7.4602 -1.082,-8.4942 -0.3818,-0.1762 -0.7947,-0.2598 -1.2235,-0.2598 z"
         fill="#144a8f"
         id="path196" />
      <path
         d="m 30.1219,36.6061 c -0.2767,0.6576 -0.9263,1.1194 -1.6835,1.1194 -1.009,0 -1.8268,-0.8168 -1.8268,-1.8259 0,-0.6015 0.2945,-1.1292 0.7421,-1.4619 -0.0685,-0.0045 -0.1343,-0.0205 -0.2046,-0.0205 -1.7307,0 -3.134,1.4032 -3.134,3.1339 0,1.7307 1.4033,3.1339 3.134,3.1339 1.7307,0 3.1339,-1.4032 3.1339,-3.1339 0,-0.3319 -0.0658,-0.6451 -0.1611,-0.945 z"
         fill="#144a8f"
         id="path238" />
    </g>
    <g
       id="g3946"
       inkscape:label="right-eye"
       style="display:inline">
      <path
         d="m 5.23101,39.7721 c 1.84993,4.0024 5.49199,6.2563 8.13559,5.0346 2.6445,-1.2217 3.287,-5.4573 1.4379,-9.4597 -1.8508,-4.0023 -5.49279,-6.2563 -8.13643,-5.0345 -2.64365,1.2226 -3.28609,5.4572 -1.43706,9.4596 z"
         fill="#ffffff"
         id="path202" />
      <path
         d="m 17.1966,41.0499 c 0,0 1.1932,-6.7982 -3.9891,-8.7434 1.1158,2.5173 3.4285,7.9906 2.3207,10.0425 -1.1079,2.0528 1.6684,-1.2982 1.6684,-1.2982"
         fill="#2494d1"
         id="path210" />
      <path
         d="m 11.8167,45.8682 c -1.0313,0 -2.12218,-0.3372 -3.19708,-1.0019 C 6.96367,43.8412 5.52573,42.1408 4.57274,40.0773 2.5573,35.719 3.36081,31.0421 6.36393,29.6531 c 3.00402,-1.3863 7.08557,1.0304 9.10107,5.3896 0.9539,2.0635 1.3178,4.2614 1.025,6.186 -0.3096,2.0359 -1.3107,3.5406 -2.818,4.2373 -0.5819,0.2688 -1.2066,0.4022 -1.8553,0.4022 z M 8.19696,30.712 c -0.42979,0 -0.84177,0.0836 -1.22439,0.2598 -2.237,1.034 -2.73263,4.9243 -1.08202,8.4942 0.83554,1.8081 2.07594,3.2861 3.49253,4.1634 1.32312,0.8169 2.62852,1.0011 3.67852,0.5161 1.05,-0.484 1.7574,-1.599 1.9905,-3.1357 0.25,-1.647 -0.0721,-3.5503 -0.9076,-5.3584 -1.3686,-2.9605 -3.8618,-4.9403 -5.94843,-4.9403 z"
         fill="#144a8f"
         id="path204" />
      <path
         d="m 15.0619,36.6221 c -0.2803,0.6487 -0.9237,1.1034 -1.6747,1.1034 -1.009,0 -1.8268,-0.8168 -1.8268,-1.8259 0,-0.6006 0.2937,-1.1283 0.7412,-1.4611 -0.0729,-0.0053 -0.1432,-0.0222 -0.218,-0.0222 -1.7307,0 -3.13389,1.4032 -3.13389,3.1339 0,1.7307 1.40319,3.134 3.13389,3.134 1.7307,0 3.134,-1.4033 3.134,-3.134 0,-0.3256 -0.0641,-0.6335 -0.1557,-0.9289 z"
         fill="#144a8f"
         id="path206" />
    </g>
    <g
       id="g3935"
       inkscape:label="nose"
       style="display:inline">
      <path
         d="m 22.8807,46.2135 c 0.0765,0.387 -0.5553,-0.0196 -1.2111,0.1094 -0.6558,0.1299 -1.0856,0.7466 -1.1621,0.3595 -0.0765,-0.3871 0.3168,-1.1879 0.9717,-1.3178 0.6558,-0.1299 1.3249,0.4618 1.4006,0.8489"
         fill="#144a8f"
         id="path170" />
      <path
         d="m 16.4106,46.2135 c -0.0765,0.387 0.5553,-0.0196 1.211,0.1094 0.6558,0.1299 1.0856,0.7466 1.1621,0.3595 0.0766,-0.3871 -0.3167,-1.1879 -0.9716,-1.3178 -0.6558,-0.1299 -1.325,0.4618 -1.4006,0.8489"
         fill="#144a8f"
         id="path172" />
      <path
         d="m 15.819,44.5308 c -0.9378,1.1701 -0.8373,2.8661 0.2474,3.9019 0.7635,0.7287 2.4372,1.1594 3.2932,1.2341 0,0 -6.2474,-0.4119 -8.3518,-3.4925 0.9023,-0.9387 3.2692,-2.2165 3.9819,-3.1179 0.7137,-0.9023 2.2032,-2.6508 3.1989,-1.7743"
         fill="#2494d1"
         id="path208" />
      <path
         d="m 19.636186,50.852223 c -3.4845,0 -6.9895,-1.8641 -10.1358697,-5.3914 -0.05695,-0.064 -0.10144,-0.1361 -0.13169,-0.2108 4.8821237,-0.449468 6.0782427,-3.047551 7.1647597,-4.2827 1.7832,-1.6649 4.5888,-1.6284 6.3284,0.1112 l 2.5876,2.5725 c 0.2847,0.2829 0.2856,0.743 0.0027,1.0277 -0.283,0.2847 -0.743,0.2856 -1.0278,0.0027 l -2.5893,-2.5743 c -1.212,-1.2119 -3.1811,-1.2101 -4.3895,-0.0018 l -2.5306,2.5218 c -0.0223,0.0222 -0.0472,0.0436 -0.0721,0.0623 -0.3364,0.3203 -0.7199,0.5846 -1.147,0.783 -0.5606,0.2589 -1.1585,0.3853 -1.7743,0.3915 1.963,1.8286 4.6235,3.537 7.7147,3.537 0.4013,0 0.727,0.3248 0.727,0.7261 0,0.4013 -0.3257,0.7261 -0.727,0.7261 z"
         fill="#144a8f"
         id="path212"
         sodipodi:nodetypes="ccccccccccccccsscc" />
    </g>
  </g>
  <defs
     id="defs289">
    <clipPath
       id="clip0_3121_17160">
      <rect
         width="144.718"
         height="64"
         fill="#ffffff"
         id="rect286"
         x="0"
         y="0" />
    </clipPath>
  </defs>
</svg>
